<svg width="76" height="50" viewBox="0 0 76 50" fill="none" xmlns="http://www.w3.org/2000/svg">
    <g clip-path="url(#clip0_222_844)">
        <path d="M36.6396 37.9545L34.7841 32.8588C34.7526 32.7714 34.6701 32.7134 34.5789 32.7134C34.5322 32.7134 34.4888 32.7277 34.453 32.7539C34.4171 32.779 34.39 32.8151 34.3737 32.8588L32.5171 37.9545C32.465 38.0988 32.5703 38.2508 32.7234 38.2508H36.4344C36.5864 38.2508 36.6917 38.0988 36.6396 37.9545ZM36.6396 37.9545L34.7841 32.8588C34.7526 32.7714 34.6701 32.7134 34.5789 32.7134C34.5322 32.7134 34.4888 32.7277 34.453 32.7539C34.4171 32.779 34.39 32.8151 34.3737 32.8588L32.5171 37.9545C32.465 38.0988 32.5703 38.2508 32.7234 38.2508H36.4344C36.5864 38.2508 36.6917 38.0988 36.6396 37.9545ZM72.3346 23.7936H3.66537C1.6416 23.7936 0 25.4466 0 27.4844V46.3092C0 48.3481 1.6416 50 3.66537 50H72.3346C74.3584 50 76 48.3481 76 46.3092V27.4844C76 25.4466 74.3584 23.7936 72.3346 23.7936ZM22.5742 46.3704H18.6026V35.6401C18.6026 35.5362 18.5321 35.44 18.43 35.4236C18.3692 35.4138 18.3117 35.4291 18.2671 35.463C18.2324 35.4892 18.2053 35.5275 18.1922 35.5723L15.0599 46.3704H11.9439L8.81057 35.5723C8.78451 35.4827 8.70309 35.4203 8.60971 35.4203C8.55217 35.4203 8.49897 35.4444 8.46206 35.4827C8.42406 35.5209 8.40017 35.5734 8.40017 35.6313V46.3704H4.42971V27.4844H9.68349L13.2359 39.6731C13.2663 39.7781 13.363 39.8502 13.4715 39.8502C13.5247 39.8502 13.5769 39.8316 13.6181 39.801C13.6583 39.7693 13.6909 39.7256 13.7061 39.6731L17.2585 27.4844H22.5742V46.3704ZM39.7415 46.3704L38.1433 41.9635C38.1129 41.876 38.0304 41.8181 37.9381 41.8181H31.2794C31.1882 41.8181 31.1057 41.876 31.0742 41.9635L29.4771 46.3704H25.0181L32.8374 27.4844H36.3204L44.2005 46.3704H39.7415ZM57.9467 31.7907H52.6626C52.5442 31.7907 52.4487 31.888 52.4487 32.0061V46.3704H47.867V32.0061C47.867 31.888 47.7714 31.7907 47.6531 31.7907H42.3678V27.4844H57.9467V31.7907ZM71.5703 31.6825H65.5066C65.3882 31.6825 65.2927 31.7787 65.2927 31.8979V34.8639C65.2927 34.983 65.3882 35.0792 65.5066 35.0792H70.9601V38.7176H65.5066C65.3882 38.7176 65.2927 38.8138 65.2927 38.9319V41.9613C65.2927 42.0804 65.3882 42.1767 65.5066 42.1767H71.5703V46.3092H60.9401V27.4844H71.5703V31.6825ZM34.5789 32.7134C34.5322 32.7134 34.4888 32.7277 34.453 32.7539C34.4171 32.779 34.39 32.8151 34.3737 32.8588L32.5171 37.9545C32.465 38.0988 32.5703 38.2508 32.7234 38.2508H36.4344C36.5864 38.2508 36.6917 38.0988 36.6396 37.9545L34.7841 32.8588C34.7526 32.7714 34.6701 32.7134 34.5789 32.7134ZM36.6396 37.9545L34.7841 32.8588C34.7526 32.7714 34.6701 32.7134 34.5789 32.7134C34.5322 32.7134 34.4888 32.7277 34.453 32.7539C34.4171 32.779 34.39 32.8151 34.3737 32.8588L32.5171 37.9545C32.465 38.0988 32.5703 38.2508 32.7234 38.2508H36.4344C36.5864 38.2508 36.6917 38.0988 36.6396 37.9545ZM36.6396 37.9545L34.7841 32.8588C34.7526 32.7714 34.6701 32.7134 34.5789 32.7134C34.5322 32.7134 34.4888 32.7277 34.453 32.7539C34.4171 32.779 34.39 32.8151 34.3737 32.8588L32.5171 37.9545C32.465 38.0988 32.5703 38.2508 32.7234 38.2508H36.4344C36.5864 38.2508 36.6917 38.0988 36.6396 37.9545Z" fill="white"/>
        <path d="M36.4342 38.2508H32.7232C32.5701 38.2508 32.4648 38.0988 32.5169 37.9545L34.3735 32.8588C34.3898 32.8151 34.4169 32.779 34.4527 32.7539C34.4886 32.7277 34.532 32.7134 34.5787 32.7134C34.6699 32.7134 34.7524 32.7714 34.7839 32.8588L36.6394 37.9545C36.6915 38.0988 36.5862 38.2508 36.4342 38.2508Z" fill="white"/>
        <path d="M36.4342 38.2508H32.7232C32.5701 38.2508 32.4648 38.0988 32.5169 37.9545L34.3735 32.8588C34.3898 32.8151 34.4169 32.779 34.4527 32.7539C34.4886 32.7277 34.532 32.7134 34.5787 32.7134C34.6699 32.7134 34.7524 32.7714 34.7839 32.8588L36.6394 37.9545C36.6915 38.0988 36.5862 38.2508 36.4342 38.2508Z" fill="white"/>
        <path d="M36.4342 38.2508H32.7232C32.5701 38.2508 32.4648 38.0988 32.5169 37.9545L34.3735 32.8588C34.3898 32.8151 34.4169 32.779 34.4527 32.7539C34.4886 32.7277 34.532 32.7134 34.5787 32.7134C34.6699 32.7134 34.7524 32.7714 34.7839 32.8588L36.6394 37.9545C36.6915 38.0988 36.5862 38.2508 36.4342 38.2508Z" fill="white"/>
        <path d="M36.4342 38.2508H32.7232C32.5701 38.2508 32.4648 38.0988 32.5169 37.9545L34.3735 32.8588C34.3898 32.8151 34.4169 32.779 34.4527 32.7539C34.4886 32.7277 34.532 32.7134 34.5787 32.7134C34.6699 32.7134 34.7524 32.7714 34.7839 32.8588L36.6394 37.9545C36.6915 38.0988 36.5862 38.2508 36.4342 38.2508Z" fill="white"/>
        <path d="M36.4342 38.2508H32.7232C32.5701 38.2508 32.4648 38.0988 32.5169 37.9545L34.3735 32.8588C34.3898 32.8151 34.4169 32.779 34.4527 32.7539C34.4886 32.7277 34.532 32.7134 34.5787 32.7134C34.6699 32.7134 34.7524 32.7714 34.7839 32.8588L36.6394 37.9545C36.6915 38.0988 36.5862 38.2508 36.4342 38.2508Z" fill="white"/>
        <path d="M36.4342 38.2508H32.7232C32.5701 38.2508 32.4648 38.0988 32.5169 37.9545L34.3735 32.8588C34.3898 32.8151 34.4169 32.779 34.4527 32.7539C34.4886 32.7277 34.532 32.7134 34.5787 32.7134C34.6699 32.7134 34.7524 32.7714 34.7839 32.8588L36.6394 37.9545C36.6915 38.0988 36.5862 38.2508 36.4342 38.2508Z" fill="white"/>
        <path d="M49.7517 0C43.8291 0 40.0259 4.33147 40.0259 10.2952C40.0259 16.2589 43.8291 20.5904 49.7517 20.5904C55.6743 20.5904 59.5405 16.2589 59.5405 10.2952C59.5405 4.33147 55.6754 0 49.7517 0ZM49.7517 16.3223C46.5098 16.3223 44.3904 13.9991 44.3904 10.2329C44.3904 6.4666 46.5108 4.26916 49.7517 4.26916C52.9926 4.26916 55.1141 6.4666 55.1141 10.2329C55.1141 13.9991 52.9936 16.3223 49.7517 16.3223Z" fill="white"/>
        <path d="M75.9999 20.0897H63.2818C62.2493 20.0897 61.4111 19.2468 61.4111 18.206V0.313782H66.0873V15.6948H75.9999V20.0897Z" fill="white"/>
        <path d="M28.6172 0C22.6935 0 19.0151 4.33147 19.0151 10.2952C19.0151 16.2589 22.6935 20.5904 28.6161 20.5904C34.5387 20.5904 38.2801 16.2589 38.2801 10.2952C38.2801 4.33147 34.5398 0 28.6172 0ZM28.6172 16.3223C25.3752 16.3223 23.3808 13.9991 23.3808 10.2329C23.3808 6.4666 25.3752 4.26916 28.6172 4.26916C31.8591 4.26916 33.8536 6.4666 33.8536 10.2329C33.8536 13.9991 31.8591 16.3223 28.6172 16.3223Z" fill="white"/>
        <path d="M9.03966 20.5291C3.24194 20.5291 0 15.8205 0 10.1705C0 4.52061 3.24194 0 8.97777 0C13.4042 0 16.5213 2.69925 17.5821 6.52892V7.15644H13.4672C12.6562 5.71226 11.6595 4.39379 8.97777 4.39379C5.86069 4.39379 4.3016 7.15644 4.3016 10.2952C4.3016 13.1201 5.86069 16.1332 8.97777 16.1332C11.6584 16.1332 12.6562 14.8781 13.4672 13.4962H17.5821V14.1238C16.5224 17.9534 13.5921 20.5269 9.04074 20.5269L9.03966 20.5291Z" fill="white"/>
    </g>
    <defs>
        <clipPath id="clip0_222_844">
            <rect width="76" height="50" fill="white"/>
        </clipPath>
    </defs>
</svg>